<?xml version="1.0" standalone="no"?>
<!DOCTYPE svg PUBLIC "-//W3C//DTD SVG 20010904//EN"
 "http://www.w3.org/TR/2001/REC-SVG-20010904/DTD/svg10.dtd">
<svg version="1.0" xmlns="http://www.w3.org/2000/svg"
 width="1024.000000pt" height="1024.000000pt" viewBox="0 0 1024.000000 1024.000000"
 preserveAspectRatio="xMidYMid meet">
<metadata>
Created by potrace 1.11, written by Peter Selinger 2001-2013
</metadata>
<g transform="translate(0.000000,1024.000000) scale(0.100000,-0.100000)"
fill="#000000" stroke="none">
<path d="M1090 7430 l0 -1460 817 -2 816 -3 -1343 -1210 c-739 -665 -1353
-1217 -1363 -1225 -18 -15 35 -74 962 -1085 540 -589 987 -1074 995 -1079 9
-7 396 336 1422 1259 775 698 1477 1331 1561 1407 83 76 157 138 164 138 7 0
36 -22 64 -49 27 -26 729 -659 1559 -1406 1099 -989 1513 -1356 1522 -1349 8
5 455 490 995 1079 927 1011 980 1070 962 1085 -10 8 -624 560 -1363 1225
l-1343 1210 816 3 817 2 -2 1458 -3 1457 -4027 3 -4028 2 0 -1460z"/>
</g>
</svg>
